<svg width="146" height="192" viewBox="0 0 146 192" fill="none" xmlns="http://www.w3.org/2000/svg">
<path d="M143.337 3.66849C144.285 3.73314 145.105 3.01693 145.17 2.06879C145.235 1.12065 144.519 0.299629 143.571 0.234982L143.337 3.66849ZM19.7463 191.004C20.6277 191.356 21.6287 190.927 21.9815 190.044L27.7257 175.662C28.0785 174.78 27.6488 173.779 26.7667 173.426C25.8846 173.073 24.8835 173.503 24.5314 174.386L19.4251 187.169L6.64745 182.062C5.76529 181.709 4.76428 182.139 4.41218 183.021C4.05941 183.904 4.48905 184.905 5.37121 185.257L19.7463 191.004ZM143.454 1.95174C143.571 0.234982 143.571 0.234942 143.57 0.234888C143.569 0.23485 143.568 0.234781 143.567 0.234708C143.565 0.234559 143.562 0.234354 143.558 0.234093C143.55 0.233573 143.539 0.232834 143.524 0.231891C143.495 0.230004 143.453 0.227302 143.397 0.223903C143.286 0.217105 143.122 0.207521 142.909 0.196108C142.484 0.173283 141.86 0.14314 141.062 0.113349C139.465 0.0537745 137.168 -0.00443433 134.353 0.000189834C128.725 0.00943016 121.011 0.26971 112.675 1.27665C104.346 2.28268 95.3457 4.0399 87.1674 7.06468C79.0024 10.0845 71.5315 14.4141 66.4087 20.6435L69.0653 22.8299C73.6564 17.247 80.5067 13.1972 88.3601 10.2926C96.2002 7.39291 104.915 5.68043 113.087 4.69335C121.252 3.70711 128.824 3.45076 134.358 3.44167C137.123 3.43713 139.376 3.49432 140.933 3.55244C141.712 3.5815 142.317 3.61078 142.725 3.63266C142.929 3.6436 143.084 3.65269 143.187 3.65899C143.239 3.66213 143.277 3.66457 143.302 3.6662C143.315 3.66701 143.324 3.66762 143.33 3.66801C143.333 3.6682 143.335 3.66833 143.336 3.66842C143.337 3.66846 143.337 3.66847 143.337 3.66849C143.337 3.6685 143.337 3.66849 143.454 1.95174ZM66.4087 20.6435C49.1821 41.5905 43.5212 67.6203 55.8495 90.0132L58.8633 88.353C47.4048 67.5407 52.453 43.0304 69.0653 22.8299L66.4087 20.6435ZM55.8495 90.0132C58.4187 94.6794 63.5924 98.6872 69.1222 100.915C74.6211 103.13 80.9726 103.774 85.8063 100.98L84.0855 98.0008C80.5668 100.034 75.4512 99.7534 70.4073 97.7219C65.3943 95.703 60.9493 92.1428 58.8633 88.353L55.8495 90.0132ZM85.8063 100.98C90.9531 98.0057 93.4787 92.482 94.0568 86.7482C94.6351 81.0109 93.3082 74.7844 90.4342 69.9723L87.4812 71.7379C89.9589 75.8865 91.1417 81.3677 90.6341 86.4028C90.1262 91.4406 87.97 95.7552 84.0855 98.0008L85.8063 100.98ZM90.4342 69.9723C82.123 56.0576 68.9131 51.9652 55.1387 53.4075C41.4616 54.8396 27.088 61.71 15.8117 69.8701L17.8282 72.6586C28.8017 64.7174 42.6107 58.1795 55.4964 56.8303C68.2847 55.4912 80.0191 59.2448 87.4812 71.7379L90.4342 69.9723ZM15.8117 69.8701C6.27369 76.7722 1.88165 87.9673 0.504039 100.509C-0.874821 113.058 0.730281 127.211 3.43903 140.434C6.15061 153.674 9.99094 166.081 13.1484 175.168C14.7282 179.715 16.139 183.437 17.1564 186.026C17.6647 187.32 18.075 188.331 18.3591 189.02C18.5008 189.364 18.6113 189.629 18.6869 189.808C18.7243 189.897 18.753 189.965 18.7729 190.012C18.7823 190.034 18.7899 190.052 18.7952 190.064C18.7975 190.071 18.7999 190.075 18.801 190.079C18.8016 190.08 18.8022 190.081 18.8028 190.082C18.8034 190.083 18.8034 190.084 20.3841 189.405C21.9648 188.727 21.9648 188.727 21.9648 188.726C21.9642 188.726 21.9642 188.725 21.9636 188.724C21.9624 188.721 21.9613 188.718 21.9589 188.713C21.9542 188.702 21.9478 188.687 21.9391 188.665C21.9209 188.623 21.8933 188.558 21.8577 188.473C21.785 188.302 21.6781 188.045 21.5398 187.709C21.2621 187.036 20.8588 186.042 20.3573 184.766C19.3545 182.214 17.9597 178.536 16.3975 174.039C13.2708 165.039 9.48027 152.786 6.80906 139.743C4.13308 126.681 2.60083 112.925 3.92346 100.884C5.24738 88.8357 9.39499 78.7612 17.8282 72.6586L15.8117 69.8701Z" fill="#F9611B"/>
</svg>
