<svg width="132" height="177" viewBox="0 0 132 177" fill="none" xmlns="http://www.w3.org/2000/svg">
<g clip-path="url(#clip0_226_344)">
<path d="M34.2662 55.0659C26.1979 35.7614 48.2854 2.74605 48.2854 2.74605C48.2854 2.74605 26.3686 33.095 31.1427 53.7327C33.6578 64.6046 44.9437 73.1871 52.6977 77.9372C55.0458 79.4804 57.5599 80.8434 60.2418 82.0399C48.0201 95.1895 45.2257 117.49 52.5992 134.168C56.6856 143.411 66.5007 149.354 72.9727 152.414C76.5855 154.281 79.1096 154.918 79.1096 154.918C79.1096 154.918 76.5526 154.107 72.9727 152.414C65.9996 148.811 54.9702 140.627 50.2093 123.602C45.034 105.095 60.2418 82.0399 60.2418 82.0399C63.3783 83.4396 66.7445 84.611 70.3433 85.5753C70.5725 85.6367 70.8076 85.6888 71.0468 85.7315C72.5043 86.1221 74.0826 85.9991 75.5596 85.5289C78.8577 84.6971 81.7136 82.4243 81.5147 79.1399C81.5056 78.992 81.4903 78.847 81.469 78.7053C81.4655 78.6796 81.4614 78.6542 81.4572 78.6287C80.9581 75.6093 77.7507 74.0392 74.6997 73.6649C73.4866 73.4843 72.2859 73.5119 71.2659 73.78C68.0943 74.6144 60.2418 82.0399 60.2418 82.0399C62.5817 79.5226 66.8611 76.0303 69.887 74.2874C70.2661 74.0689 70.7353 73.8993 71.2659 73.78C72.2587 73.5577 73.4668 73.5137 74.6997 73.6649C77.8122 74.1287 81.0084 75.9637 81.4569 78.6282C81.4574 78.6283 81.4572 78.6287 81.4572 78.6287C81.4614 78.6542 81.4655 78.6796 81.469 78.7053C81.8737 81.4742 78.9869 84.4374 75.5596 85.5289C74.0649 85.9055 72.4795 85.9864 71.0468 85.7315C70.5244 85.5916 69.7379 85.3446 68.8217 85.043L60.2418 82.0399C60.2418 82.0399 68.0943 74.6144 71.2659 73.78C70.7353 73.8993 70.2661 74.0689 69.887 74.2874C66.8611 76.0303 62.5817 79.5226 60.2418 82.0399C60.2418 82.0399 57.0179 80.5835 52.6977 77.9372C44.6104 72.6229 38.4918 65.1763 34.2662 55.0659Z" fill="#317039"/>
<path d="M48.2854 2.74552L47.701 2.3246L48.8845 3.14531L48.2854 2.74552ZM79.1097 154.918L79.327 154.232L78.9333 155.615L79.1097 154.918ZM71.2659 73.7795L71.0817 73.0845L71.2669 73.0353L71.452 73.0849L71.2659 73.7795ZM81.4569 78.6276L80.7489 78.7575L80.7479 78.7518L80.747 78.7461L81.4569 78.6276ZM48.2854 2.74552C48.8845 3.14531 48.8846 3.14519 48.8845 3.14531C48.8844 3.14552 48.8841 3.14589 48.8839 3.14631C48.8833 3.14714 48.8824 3.14846 48.8812 3.15029C48.8787 3.15396 48.875 3.15961 48.8699 3.16723C48.8598 3.18247 48.8445 3.20559 48.8242 3.23638C48.7836 3.298 48.7231 3.39038 48.6442 3.51211C48.4863 3.75556 48.2551 4.11637 47.9632 4.58313C47.3793 5.51671 46.5529 6.87374 45.5858 8.56308C43.6508 11.943 41.1562 16.6469 38.9138 21.9467C36.67 27.2496 34.6878 33.1282 33.7641 38.8612C32.8393 44.6006 32.9852 50.1338 34.9309 54.7889L33.6014 55.3418C31.513 50.3448 31.3943 44.5118 32.3417 38.6315C33.2902 32.7447 35.3171 26.7498 37.5866 21.3859C39.8575 16.0188 42.3806 11.2622 44.3348 7.84851C45.3124 6.14104 46.1485 4.76792 46.741 3.82058C47.0372 3.34685 47.2727 2.9795 47.4345 2.7299C47.5154 2.60511 47.5779 2.50974 47.6204 2.44524C47.6416 2.41299 47.6579 2.38845 47.6689 2.37181C47.6744 2.36348 47.6787 2.35713 47.6816 2.35278C47.683 2.35059 47.6842 2.34893 47.6849 2.34774C47.6853 2.34716 47.6857 2.34665 47.6858 2.34635C47.6861 2.34597 47.6863 2.34572 48.2854 2.74552ZM70.5294 84.8803C70.7382 84.9362 70.9526 84.9837 71.1729 85.0229L70.9208 86.4386C70.6626 86.3928 70.4073 86.3363 70.1572 86.2693L70.5294 84.8803ZM71.1729 85.0229C72.4945 85.2584 73.9763 85.1855 75.3825 84.8308L75.7367 86.2254C74.154 86.6246 72.4651 86.7135 70.9208 86.4386L71.1729 85.0229ZM75.3825 84.8308C78.5584 84.0303 80.9627 81.9417 80.7958 79.1819L82.2336 79.0968C82.4644 82.9063 79.1564 85.3632 75.7367 86.2254L75.3825 84.8308ZM80.7958 79.1819C80.7876 79.0547 80.7746 78.9306 80.7568 78.8097L82.1819 78.5996C82.2059 78.7623 82.2232 78.9278 82.2336 79.0968L80.7958 79.1819ZM80.7568 78.8097C80.7536 78.788 80.75 78.7662 80.7464 78.7444L82.1681 78.512C82.1727 78.541 82.1774 78.5701 82.1819 78.5996L80.7568 78.8097ZM80.7464 78.7444C80.5378 77.4817 79.7635 76.4916 78.6406 75.7555C77.5093 75.0137 76.0574 74.5557 74.6128 74.378L74.7869 72.9508C76.3933 73.148 78.0704 73.6619 79.4306 74.5534C80.7987 75.4504 81.878 76.7555 82.1681 78.512L80.7464 78.7444ZM74.6128 74.378C73.4464 74.2352 72.3232 74.2796 71.4244 74.4814L71.1073 73.0779C72.1944 72.8343 73.4868 72.791 74.7869 72.9508L74.6128 74.378ZM71.4244 74.4814C70.9441 74.589 70.5475 74.7368 70.2474 74.91L69.5266 73.6638C69.9846 73.3999 70.5265 73.2082 71.1073 73.0779L71.4244 74.4814ZM53.2582 133.877C57.2324 142.867 66.8332 148.715 73.2806 151.764L72.6648 153.064C66.1681 149.991 56.1391 143.954 51.9403 134.457L53.2582 133.877ZM73.2806 151.764C75.051 152.601 76.5679 153.22 77.6397 153.628C78.1756 153.833 78.6004 153.985 78.8897 154.085C79.0344 154.135 79.1448 154.172 79.2187 154.197C79.2558 154.209 79.2836 154.218 79.3014 154.224C79.3106 154.227 79.3174 154.229 79.3216 154.23C79.3239 154.231 79.3253 154.231 79.3262 154.232C79.3266 154.232 79.3266 154.232 79.327 154.232C79.327 154.232 79.3271 154.232 79.1097 154.918C78.8918 155.603 78.8918 155.603 78.8918 155.603C78.8913 155.602 78.8913 155.602 78.8909 155.602C78.8904 155.602 78.8899 155.602 78.889 155.602C78.8876 155.601 78.8853 155.601 78.8822 155.599C78.8766 155.598 78.8684 155.595 78.8578 155.592C78.8369 155.585 78.8062 155.575 78.7664 155.562C78.6866 155.535 78.5694 155.496 78.4183 155.443C78.1162 155.339 77.6779 155.182 77.127 154.972C76.0259 154.552 74.4742 153.919 72.6648 153.064L73.2806 151.764ZM48.2854 2.74552C48.8698 3.16643 48.8698 3.16642 48.8698 3.16653C48.8696 3.16672 48.8695 3.16694 48.8692 3.16733C48.8686 3.16809 48.8678 3.16931 48.8666 3.171C48.8641 3.17435 48.8604 3.17954 48.8554 3.18654C48.8453 3.20054 48.8301 3.22179 48.81 3.25013C48.7696 3.30681 48.7094 3.39188 48.6307 3.50409C48.4734 3.72851 48.2424 4.06154 47.9497 4.49336C47.3641 5.35706 46.5315 6.61571 45.5467 8.19114C43.5765 11.3431 41.0001 15.7578 38.5733 20.8111C36.1455 25.8667 33.8752 31.5455 32.5076 37.2276C31.1386 42.9154 30.6854 48.5603 31.8446 53.5709L30.4408 53.8935C29.213 48.5851 29.7091 42.6974 31.1068 36.8904C32.5058 31.0777 34.8196 25.2997 37.2742 20.1883C39.7299 15.0747 42.3343 10.6123 44.3243 7.42888C45.3196 5.83663 46.162 4.56303 46.7563 3.6864C47.0535 3.24806 47.2888 2.9089 47.4502 2.67869C47.5308 2.56357 47.5931 2.47571 47.6354 2.41628C47.6565 2.38657 47.6727 2.36398 47.6837 2.34864C47.6892 2.34097 47.6934 2.33513 47.6963 2.33112C47.6977 2.32911 47.6988 2.32756 47.6996 2.32648C47.7 2.32593 47.7003 2.32546 47.7006 2.3252C47.7008 2.32484 47.701 2.3246 48.2854 2.74552ZM70.2474 74.91C67.2897 76.6136 63.0659 80.0587 60.7701 82.5288L59.7136 81.5499C62.0977 78.9849 66.4326 75.446 69.5266 73.6638L70.2474 74.91ZM60.7701 82.5288C48.7643 95.4459 45.9881 117.433 53.2582 133.877L51.9403 134.457C44.4634 117.545 47.2759 94.932 59.7136 81.5499L60.7701 82.5288ZM34.9309 54.7889C39.1059 64.7786 45.1361 72.1072 53.0934 77.336L52.3021 78.5373C44.0849 73.1371 37.8776 65.573 33.6014 55.3418L34.9309 54.7889ZM53.0934 77.336C55.4068 78.8566 57.8864 80.2013 60.5352 81.383L59.9483 82.6961C57.2333 81.4848 54.6849 80.1028 52.3021 78.5373L53.0934 77.336ZM60.5352 81.383C63.6332 82.7654 66.9629 83.9246 70.5294 84.8803L70.1572 86.2693C66.526 85.2963 63.1235 84.1127 59.9483 82.6961L60.5352 81.383ZM31.8446 53.5709C33.0597 58.8233 36.4082 63.5724 40.4647 67.622C44.5155 71.666 49.2242 74.9658 53.074 77.3238L52.3215 78.5494C48.4171 76.1579 43.6059 72.7909 39.4465 68.6384C35.2927 64.4913 31.7409 59.513 30.4408 53.8935L31.8446 53.5709ZM53.074 77.3238C55.2165 78.6363 57.0868 79.6536 58.4202 80.3419C59.0868 80.6857 59.6186 80.9478 59.9828 81.1228C60.1649 81.2103 60.3049 81.2766 60.3989 81.3202C60.4458 81.3422 60.4812 81.3586 60.5047 81.3694C60.5164 81.3745 60.5251 81.3783 60.5308 81.3808C60.5335 81.3825 60.5356 81.3831 60.5368 81.3839C60.5374 81.3841 60.5379 81.3842 60.5382 81.3843C60.5382 81.3843 60.5383 81.3843 60.2418 82.0393C59.9453 82.6948 59.9452 82.6948 59.9451 82.6948C59.945 82.6948 59.9451 82.6943 59.945 82.6942C59.9448 82.6942 59.9445 82.6941 59.9443 82.6941C59.9437 82.6939 59.9429 82.6937 59.9421 82.693C59.9401 82.6925 59.9375 82.6912 59.9341 82.6893C59.9272 82.6865 59.9173 82.6819 59.9043 82.6759C59.8784 82.664 59.8403 82.6464 59.7908 82.6232C59.6915 82.5772 59.546 82.5084 59.3583 82.4184C58.9829 82.238 58.4388 81.9701 57.7594 81.6193C56.4007 80.9178 54.4991 79.8832 52.3215 78.5494L53.074 77.3238ZM70.1053 86.2534L68.5839 85.7207L69.0593 84.3638L70.5809 84.896L70.1053 86.2534ZM68.5839 85.7207L60.0041 82.718L60.4794 81.3611L69.0593 84.3638L68.5839 85.7207ZM60.2418 82.0393C60.8435 82.4353 60.8435 82.4353 60.8435 82.4353C60.8434 82.4357 60.8433 82.4357 60.8432 82.4357C60.8428 82.4366 60.8422 82.4374 60.8416 82.4382C60.8399 82.4408 60.8375 82.4446 60.8341 82.4497C60.8273 82.4602 60.8171 82.4758 60.8034 82.497C60.7757 82.5397 60.7346 82.6036 60.6807 82.6884C60.5729 82.858 60.4145 83.1109 60.2141 83.4403C59.8133 84.0986 59.2449 85.0624 58.5782 86.2772C57.2443 88.7077 55.5195 92.1396 53.9559 96.1423C50.8175 104.177 48.3796 114.385 50.9031 123.409L49.5156 123.795C46.8637 114.311 49.4421 103.738 52.6137 95.6184C54.2051 91.5443 55.9588 88.0556 57.3146 85.5853C57.9928 84.3492 58.5721 83.367 58.9827 82.6925C59.1881 82.355 59.3513 82.0945 59.4637 81.9177C59.52 81.8291 59.5635 81.7613 59.5933 81.7152C59.6082 81.6924 59.6195 81.6751 59.6275 81.6628C59.6313 81.6569 59.6344 81.6523 59.6365 81.6489C59.6375 81.6476 59.6383 81.6464 59.639 81.6451C59.6393 81.6447 59.6396 81.6442 59.6397 81.6443C59.6399 81.6438 59.64 81.6439 60.2418 82.0393ZM50.9031 123.409C55.5954 140.188 66.4517 148.235 73.3034 151.775L72.6425 153.052C65.5471 149.386 54.345 141.065 49.5156 123.795L50.9031 123.409ZM73.3034 151.775C75.0788 152.693 76.584 153.306 77.6412 153.69C78.1696 153.882 78.5857 154.015 78.8676 154.101C79.0083 154.144 79.1154 154.174 79.1858 154.194C79.2209 154.203 79.2474 154.211 79.2642 154.215C79.2725 154.217 79.2786 154.218 79.2818 154.219C79.2837 154.22 79.2851 154.22 79.2855 154.22C79.2855 154.22 79.2855 154.22 79.1097 154.918C78.9333 155.615 78.9333 155.615 78.9333 155.615L78.9328 155.615C78.9328 155.615 78.9324 155.614 78.9319 155.614C78.9314 155.614 78.9305 155.614 78.9296 155.614C78.9277 155.613 78.9254 155.613 78.9222 155.612C78.9161 155.61 78.9073 155.608 78.8966 155.605C78.8743 155.599 78.8427 155.591 78.802 155.579C78.7206 155.557 78.6024 155.523 78.4497 155.477C78.1452 155.385 77.7045 155.242 77.1502 155.042C76.0427 154.64 74.4795 154.001 72.6425 153.052L73.3034 151.775ZM60.2418 82.0393C59.7461 81.5175 59.7463 81.517 59.7463 81.517C59.7464 81.517 59.7465 81.5171 59.7467 81.5166C59.7469 81.5167 59.7473 81.5163 59.7479 81.5155C59.7489 81.5147 59.7504 81.5132 59.7525 81.5112C59.7565 81.5073 59.7623 81.5019 59.77 81.4946C59.7853 81.4803 59.808 81.4591 59.8376 81.4313C59.8969 81.3757 59.9837 81.2948 60.0951 81.1916C60.3181 80.9849 60.6395 80.6894 61.0349 80.3328C61.8254 79.6191 62.9139 78.6578 64.1034 77.6694C65.2912 76.6825 66.5887 75.661 67.7962 74.8298C68.9797 74.0155 70.1558 73.3277 71.0817 73.0845L71.45 74.4749C70.7899 74.6484 69.7954 75.2017 68.6146 76.0143C67.4576 76.8104 66.1974 77.8017 65.0256 78.7755C63.8555 79.7478 62.7826 80.6949 62.0017 81.3998C61.6113 81.7522 61.2945 82.0435 61.0756 82.2464C60.9662 82.3476 60.8812 82.427 60.8238 82.4806C60.7951 82.5077 60.7733 82.5281 60.7588 82.5416C60.7515 82.5486 60.7461 82.5536 60.7424 82.5571C60.7407 82.5586 60.7394 82.5598 60.7385 82.561C60.738 82.5614 60.7378 82.5613 60.7376 82.5617C60.7375 82.5617 60.7376 82.5617 60.7376 82.5617C60.7376 82.5617 60.7374 82.5617 60.2418 82.0393ZM71.452 73.0849C71.3583 73.0598 71.2753 73.0579 71.2113 73.0626C71.1799 73.0651 71.152 73.0691 71.1283 73.0736C71.1047 73.0782 71.0839 73.0836 71.0673 73.0881C71.0506 73.093 71.0364 73.0976 71.0249 73.1015C71.0138 73.106 71.0044 73.1094 70.9973 73.112C70.9904 73.1151 70.9849 73.1171 70.9815 73.1187C70.9799 73.1192 70.9787 73.1199 70.9777 73.1201C70.9771 73.1205 70.9765 73.1208 70.9765 73.1208C70.9766 73.1203 70.9775 73.1206 70.9777 73.1201C70.9787 73.1199 70.9799 73.1192 70.9815 73.1187C70.9849 73.1171 70.9904 73.1151 70.9973 73.112C71.0044 73.1094 71.0138 73.106 71.0249 73.1015C71.0364 73.0976 71.0506 73.093 71.0673 73.0881C71.084 73.0831 71.1047 73.0782 71.1283 73.0736C71.152 73.0691 71.1794 73.065 71.2113 73.0626C71.2748 73.0578 71.3587 73.06 71.452 73.0849L71.0798 74.474C71.1735 74.4991 71.2569 74.5016 71.3203 74.4967C71.3518 74.4943 71.3797 74.4903 71.4033 74.4857C71.4269 74.4811 71.4477 74.4758 71.4644 74.4713C71.4811 74.4664 71.4953 74.4617 71.5069 74.4574C71.5184 74.4535 71.5277 74.4501 71.5345 74.4469C71.5417 74.4444 71.5468 74.4418 71.5501 74.4407C71.5518 74.4401 71.5529 74.4395 71.5541 74.4388C71.5547 74.4385 71.5552 74.4386 71.5552 74.4386C71.5547 74.4384 71.5546 74.4389 71.5541 74.4388C71.5529 74.4395 71.5518 74.4401 71.5501 74.4407C71.5468 74.4418 71.5412 74.4443 71.5345 74.4469C71.5277 74.4501 71.5179 74.4534 71.5069 74.4574C71.4953 74.4617 71.4811 74.4664 71.4644 74.4713C71.4477 74.4758 71.4269 74.4811 71.4033 74.4857C71.3797 74.4903 71.3518 74.4943 71.3203 74.4967C71.2564 74.5014 71.1735 74.4991 71.0798 74.474L71.452 73.0849ZM71.0817 73.0845C72.2174 72.7854 73.52 72.7617 74.8056 72.9533L74.5941 74.3755C73.4533 74.2058 72.3544 74.2374 71.45 74.4749L71.0817 73.0845ZM74.8056 72.9533C76.4543 73.1986 78.1377 73.8079 79.4834 74.7273C80.825 75.6436 81.8995 76.9185 82.1673 78.5093L80.747 78.7461C80.5658 77.6723 79.8178 76.6972 78.6712 75.9141C77.5288 75.134 76.0577 74.5935 74.5941 74.3755L74.8056 72.9533ZM82.1654 78.4979C82.1665 78.5031 82.167 78.5067 82.1673 78.5093C82.1675 78.5104 82.1677 78.5114 82.1681 78.512C82.168 78.5125 82.168 78.5125 82.168 78.5125C82.1684 78.5126 82.1683 78.5131 82.1683 78.5131C82.1682 78.5135 82.1677 78.5114 82.1673 78.5093C82.1669 78.5072 82.1665 78.5031 82.1657 78.4985L80.7488 78.758C80.7481 78.7528 80.7472 78.7491 80.7469 78.7465C80.7466 78.7455 80.7464 78.7444 80.7465 78.744C80.7462 78.7434 80.7462 78.7434 80.7462 78.7434C80.7463 78.7429 80.7463 78.7429 80.7463 78.7429C80.746 78.7423 80.7464 78.7444 80.7469 78.7465C80.7473 78.7486 80.7477 78.7527 80.7489 78.7575L82.1654 78.4979ZM82.1676 78.5099C82.1729 78.5406 82.1776 78.5711 82.1819 78.6016L80.7563 78.8076C80.7533 78.7875 80.7504 78.7668 80.7469 78.7465L82.1676 78.5099ZM82.1819 78.6016C82.4262 80.2729 81.6695 81.9112 80.4877 83.2262C79.2979 84.5495 77.6079 85.6311 75.7792 86.2135L75.3404 84.8434C76.9386 84.3342 78.4053 83.3883 79.4148 82.2648C80.432 81.1335 80.9166 79.9056 80.7563 78.8076L82.1819 78.6016ZM75.7792 86.2135C74.2007 86.716 72.4797 86.8593 70.8607 86.4255L71.2329 85.0365C72.5295 85.3839 73.964 85.2815 75.3404 84.8434L75.7792 86.2135ZM70.8607 86.4255C70.317 86.2798 69.5135 86.0273 68.5966 85.7251L69.047 84.3595C69.9616 84.6611 70.7318 84.9022 71.2329 85.0365L70.8607 86.4255ZM68.5966 85.7251C66.8877 85.162 64.7364 84.4089 63.0156 83.7979C62.1545 83.4922 61.3998 83.2215 60.8604 83.0274C60.5906 82.9303 60.3746 82.8525 60.226 82.7988C60.1518 82.7715 60.0943 82.7511 60.0554 82.7368C60.036 82.7296 60.0211 82.7246 60.0111 82.7209C60.0061 82.7191 60.0024 82.7176 59.9998 82.7169C59.9986 82.7161 59.9977 82.7158 59.997 82.7156C59.9966 82.7155 59.9964 82.7155 59.9962 82.7154C59.9961 82.7154 59.9963 82.7154 59.9962 82.7154C59.9962 82.7154 59.996 82.7154 60.2418 82.0393C60.4876 81.3638 60.4876 81.3638 60.4876 81.3638C60.4876 81.3638 60.4877 81.3638 60.4876 81.3638C60.4878 81.3638 60.4882 81.3639 60.4885 81.364C60.4891 81.3642 60.4899 81.3649 60.4912 81.3653C60.4937 81.3659 60.4974 81.3674 60.5023 81.3692C60.5121 81.3728 60.5267 81.3783 60.5461 81.3849C60.5847 81.3992 60.6418 81.42 60.7157 81.4468C60.8637 81.5003 61.0789 81.5778 61.3479 81.6747C61.8857 81.8684 62.6384 82.1381 63.497 82.4431C65.2159 83.0531 67.3544 83.8018 69.047 84.3595L68.5966 85.7251Z" fill="#317039"/>
<path d="M79.4018 143.95L93.0499 159.093C93.317 159.389 93.1265 159.863 92.728 159.892L71.6454 161.411C71.1404 161.447 70.9295 160.779 71.3643 160.521L79.7052 155.558C79.8691 155.461 79.9595 155.275 79.9356 155.086L78.5685 144.33C78.5094 143.864 79.0867 143.6 79.4018 143.95Z" fill="#317039"/>
<path d="M78.971 154.843C77.429 155.703 75.8888 156.52 74.3902 157.409C72.9219 158.28 71.4889 159.211 70.0558 160.14C69.6582 160.417 69.2816 160.724 68.9291 161.058C68.7816 161.189 68.6601 161.348 68.571 161.525C68.3632 161.942 68.6145 162.331 69.0804 162.344C69.1341 162.345 69.1879 162.341 69.2419 162.339C73.608 162.119 77.9755 161.923 82.3396 161.674C85.6074 161.488 88.8721 161.241 92.1369 161.007C92.7994 160.959 93.4607 160.869 94.1155 160.757C94.8652 160.63 95.0947 160.059 94.6275 159.459C94.1082 158.792 93.5451 158.158 92.9987 157.512C90.602 154.681 88.2292 151.829 85.7973 149.029C84.6186 147.672 83.3215 146.419 82.0891 145.108C81.3622 144.334 80.6776 143.52 79.9336 142.763C79.5337 142.377 79.0983 142.03 78.6333 141.726C78.3106 141.503 78.0944 141.592 77.8603 141.915C77.3532 142.612 77.2439 143.402 77.3567 144.227C77.6835 146.612 77.841 149.02 78.346 151.382C78.5891 152.524 78.7631 153.68 78.971 154.843ZM92.9062 159.613C85.5039 160.343 78.1631 160.703 70.8234 161.151C70.9477 161.02 71.0905 160.906 71.2474 160.814C73.0961 159.771 74.9376 158.714 76.8006 157.697C77.8577 157.12 78.9541 156.613 80.0276 156.066C80.4659 155.842 80.652 155.459 80.4612 155.042C80.1837 154.435 80.1306 153.792 80.0555 153.152C79.7104 150.224 79.3715 147.295 79.0386 144.366C79.0356 144.309 79.0387 144.251 79.0473 144.195C83.9611 149.013 88.5017 154.188 92.9057 159.613L92.9062 159.613Z" fill="#317039"/>
</g>
<defs>
<clipPath id="clip0_226_344">
<rect width="157.703" height="94.133" fill="white" transform="matrix(-0.258819 0.965926 0.965926 0.258819 40.8166 0)"/>
</clipPath>
</defs>
</svg>
