<svg width="60" height="60" viewBox="0 0 60 60" fill="none" xmlns="http://www.w3.org/2000/svg">
<path d="M30 60C13.434 60 0 46.566 0 30C0 13.434 13.434 0 30 0C46.566 0 60 13.434 60 30C60 46.566 46.566 60 30 60Z" fill="url(#paint0_linear_226_327)"/>
<path d="M30 13.2115C35.466 13.2115 36.114 13.2295 38.274 13.3315C40.272 13.4215 41.358 13.7575 42.078 14.0395C43.032 14.4115 43.716 14.8555 44.43 15.5695C45.144 16.2835 45.588 16.9675 45.96 17.9215C46.242 18.6415 46.572 19.7275 46.668 21.7255C46.764 23.8855 46.788 24.5335 46.788 29.9995C46.788 35.4655 46.77 36.1135 46.668 38.2735C46.578 40.2715 46.242 41.3575 45.96 42.0775C45.588 43.0315 45.144 43.7155 44.43 44.4295C43.716 45.1435 43.032 45.5875 42.078 45.9595C41.358 46.2415 40.272 46.5715 38.274 46.6675C36.114 46.7635 35.466 46.7875 30 46.7875C24.534 46.7875 23.886 46.7695 21.726 46.6675C19.728 46.5775 18.642 46.2415 17.922 45.9595C16.968 45.5875 16.284 45.1435 15.57 44.4295C14.856 43.7155 14.412 43.0315 14.04 42.0775C13.758 41.3575 13.428 40.2715 13.332 38.2735C13.236 36.1135 13.212 35.4655 13.212 29.9995C13.212 24.5335 13.23 23.8855 13.332 21.7255C13.422 19.7275 13.758 18.6415 14.04 17.9215C14.412 16.9675 14.856 16.2835 15.57 15.5695C16.284 14.8555 16.968 14.4115 17.922 14.0395C18.642 13.7575 19.728 13.4275 21.726 13.3315C23.886 13.2295 24.534 13.2115 30 13.2115ZM30 9.52148C24.438 9.52148 23.742 9.54548 21.558 9.64748C19.38 9.74948 17.892 10.0915 16.584 10.6015C15.24 11.1175 14.094 11.8195 12.96 12.9595C11.82 14.0995 11.124 15.2395 10.596 16.5895C10.092 17.8915 9.74399 19.3795 9.64199 21.5635C9.53999 23.7475 9.51599 24.4435 9.51599 30.0055C9.51599 35.5675 9.53999 36.2635 9.64199 38.4475C9.74399 40.6255 10.086 42.1135 10.596 43.4215C11.118 44.7595 11.82 45.9055 12.96 47.0395C14.1 48.1795 15.24 48.8755 16.59 49.4035C17.892 49.9075 19.38 50.2555 21.564 50.3575C23.748 50.4595 24.444 50.4835 30.006 50.4835C35.568 50.4835 36.264 50.4595 38.448 50.3575C40.626 50.2555 42.114 49.9135 43.422 49.4035C44.76 48.8815 45.906 48.1795 47.04 47.0395C48.18 45.8995 48.876 44.7595 49.404 43.4095C49.908 42.1075 50.256 40.6195 50.358 38.4355C50.46 36.2515 50.484 35.5555 50.484 29.9935C50.484 24.4315 50.46 23.7355 50.358 21.5515C50.256 19.3735 49.914 17.8855 49.404 16.5775C48.882 15.2395 48.18 14.0935 47.04 12.9595C45.9 11.8195 44.76 11.1235 43.41 10.5955C42.108 10.0915 40.62 9.74348 38.436 9.64148C36.258 9.54548 35.562 9.52148 30 9.52148Z" fill="white"/>
<path d="M29.9999 19.4824C24.1919 19.4824 19.4819 24.1924 19.4819 30.0004C19.4819 35.8084 24.1919 40.5184 29.9999 40.5184C35.8079 40.5184 40.5179 35.8084 40.5179 30.0004C40.5179 24.1924 35.8079 19.4824 29.9999 19.4824ZM29.9999 36.8284C26.2319 36.8284 23.1719 33.7744 23.1719 30.0004C23.1719 26.2264 26.2319 23.1724 29.9999 23.1724C33.7679 23.1724 36.8279 26.2264 36.8279 30.0004C36.8279 33.7744 33.7679 36.8284 29.9999 36.8284Z" fill="white"/>
<path d="M40.932 21.5274C42.2907 21.5274 43.392 20.426 43.392 19.0674C43.392 17.7088 42.2907 16.6074 40.932 16.6074C39.5734 16.6074 38.472 17.7088 38.472 19.0674C38.472 20.426 39.5734 21.5274 40.932 21.5274Z" fill="white"/>
<defs>
<linearGradient id="paint0_linear_226_327" x1="8.78682" y1="51.2132" x2="51.2132" y2="8.78682" gradientUnits="userSpaceOnUse">
<stop stop-color="#FFD521"/>
<stop offset="0.0551048" stop-color="#FFD020"/>
<stop offset="0.1241" stop-color="#FEC01E"/>
<stop offset="0.2004" stop-color="#FCA71B"/>
<stop offset="0.2821" stop-color="#FA8316"/>
<stop offset="0.3681" stop-color="#F85510"/>
<stop offset="0.4563" stop-color="#F51E09"/>
<stop offset="0.5" stop-color="#F30005"/>
<stop offset="0.5035" stop-color="#F20007"/>
<stop offset="0.5966" stop-color="#E1003B"/>
<stop offset="0.6879" stop-color="#D30067"/>
<stop offset="0.7757" stop-color="#C70088"/>
<stop offset="0.8589" stop-color="#BF00A0"/>
<stop offset="0.9357" stop-color="#BB00AF"/>
<stop offset="1" stop-color="#B900B4"/>
</linearGradient>
</defs>
</svg>
