<svg width="60" height="60" viewBox="0 0 60 60" fill="none" xmlns="http://www.w3.org/2000/svg">
<path d="M30 60C46.5685 60 60 46.5685 60 30C60 13.4315 46.5685 0 30 0C13.4315 0 0 13.4315 0 30C0 46.5685 13.4315 60 30 60Z" fill="#0B69C7"/>
<path d="M23.2895 19.0934C23.2902 19.9041 23.0505 20.6969 22.6006 21.3713C22.1507 22.0457 21.5108 22.5715 20.7619 22.8821C20.0131 23.1927 19.1889 23.2742 18.3937 23.1162C17.5985 22.9582 16.8681 22.5679 16.2948 21.9946C15.7216 21.4214 15.3312 20.6909 15.1733 19.8958C15.0153 19.1006 15.0968 18.2764 15.4074 17.5276C15.718 16.7787 16.2438 16.1388 16.9182 15.6889C17.5926 15.239 18.3853 14.9992 19.196 15C20.2814 15.001 21.3219 15.4327 22.0894 16.2001C22.8568 16.9675 23.2884 18.0081 23.2895 19.0934Z" fill="white"/>
<path d="M21.3514 24.8955H17.0408C16.4806 24.8955 16.0264 25.3497 16.0264 25.91V43.985C16.0264 44.5453 16.4806 44.9995 17.0408 44.9995H21.3514C21.9116 44.9995 22.3658 44.5453 22.3658 43.985V25.91C22.3658 25.3497 21.9116 24.8955 21.3514 24.8955Z" fill="white"/>
<path d="M44.9013 35.3167V44.068C44.9013 44.3151 44.8032 44.5521 44.6285 44.7268C44.4538 44.9015 44.2168 44.9996 43.9697 44.9996H39.3434C39.0963 44.9996 38.8594 44.9015 38.6847 44.7268C38.51 44.5521 38.4118 44.3151 38.4118 44.068V35.5891C38.4118 34.322 38.7789 30.0628 35.1039 30.0628C32.2539 30.0628 31.6737 32.9917 31.5513 34.3062V44.0878C31.5462 44.33 31.4469 44.5608 31.2744 44.731C31.102 44.9013 30.8699 44.9976 30.6276 44.9996H26.1513C26.0288 45.0001 25.9075 44.9764 25.7942 44.9298C25.6809 44.8831 25.578 44.8145 25.4914 44.7279C25.4048 44.6413 25.3362 44.5384 25.2896 44.4251C25.243 44.3119 25.2192 44.1905 25.2197 44.068V25.8312C25.2192 25.7085 25.2429 25.587 25.2895 25.4735C25.3361 25.36 25.4046 25.2568 25.4912 25.1699C25.5777 25.083 25.6806 25.014 25.7939 24.967C25.9072 24.9199 26.0286 24.8957 26.1513 24.8957H30.6276C30.7518 24.8936 30.8752 24.9162 30.9905 24.9623C31.1058 25.0084 31.2108 25.0769 31.2994 25.164C31.3879 25.2511 31.4583 25.3549 31.5063 25.4695C31.5543 25.584 31.579 25.707 31.5789 25.8312V27.4101C32.6368 25.8312 34.2079 24.5996 37.5513 24.5996C44.9447 24.5957 44.9013 31.5154 44.9013 35.3167Z" fill="white"/>
</svg>
