<svg width="163" height="184" viewBox="0 0 163 184" fill="none" xmlns="http://www.w3.org/2000/svg">
<g clip-path="url(#clip0_119_391)">
<path d="M127.377 91.6419C146.96 99.0086 155.841 137.726 155.841 137.726C155.841 137.726 148.783 100.961 130.489 90.2829C120.852 84.6575 106.866 86.9856 98.091 89.3715C95.3575 90.022 92.6414 90.9171 89.9314 92.0484C88.7426 74.1356 74.429 56.8086 57.234 50.7374C47.7047 47.3727 36.6483 50.4406 29.9823 53.0519C26.1461 54.4011 23.9513 55.8012 23.9513 55.8012C23.9513 55.8012 26.2954 54.4965 29.9823 53.0519C37.3866 50.4477 50.9069 48.0332 66.5625 56.2436C83.5813 65.1692 89.9314 92.0484 89.9314 92.0484C86.7617 93.3713 83.6007 95.0178 80.4308 96.9757C80.229 97.1004 80.0298 97.2358 79.8347 97.3805C78.5508 98.1735 77.558 99.4065 76.8873 100.804C75.2309 103.775 74.9265 107.412 77.4533 109.52C77.5671 109.614 77.6832 109.703 77.8008 109.784C77.822 109.799 77.8433 109.814 77.8647 109.828C80.4045 111.536 83.7468 110.278 86.1117 108.314C87.075 107.555 87.8783 106.663 88.3827 105.736C89.9504 102.856 89.9314 92.0484 89.9314 92.0484C90.1588 95.4777 89.7657 100.987 88.9591 104.385C88.8581 104.811 88.6598 105.268 88.3827 105.736C87.8636 106.611 87.0672 107.521 86.1117 108.314C83.6395 110.262 80.1121 111.329 77.8653 109.828C77.8649 109.829 77.8647 109.828 77.8647 109.828C77.8433 109.814 77.822 109.799 77.8008 109.784C75.5082 108.18 75.3312 104.047 76.8873 100.804C77.6382 99.4578 78.6666 98.2485 79.8347 97.3805C80.2948 97.0964 81.0139 96.6933 81.8617 96.2333L89.9314 92.0484C89.9314 92.0484 89.9504 102.856 88.3827 105.736C88.6598 105.268 88.8581 104.811 88.9591 104.385C89.7657 100.987 90.1588 95.4777 89.9314 92.0484C89.9314 92.0484 93.2023 90.7008 98.091 89.3715C107.505 87.1299 117.121 87.7836 127.377 91.6419Z" fill="#317039"/>
<path d="M155.841 137.725L156.548 137.589L155.139 137.887L155.841 137.725ZM23.9513 55.801L24.3009 56.429L23.5649 55.1945L23.9513 55.801ZM88.3827 105.736L89.0148 106.079L88.9236 106.247L88.7606 106.348L88.3827 105.736ZM77.8653 109.828L78.2563 109.224L78.2612 109.227L78.266 109.23L77.8653 109.828ZM155.841 137.725C155.139 137.887 155.139 137.887 155.139 137.887C155.139 137.887 155.139 137.886 155.139 137.886C155.139 137.885 155.138 137.883 155.138 137.881C155.137 137.877 155.135 137.87 155.133 137.861C155.129 137.844 155.123 137.817 155.114 137.781C155.097 137.709 155.071 137.602 155.037 137.461C154.968 137.179 154.864 136.763 154.724 136.231C154.445 135.165 154.025 133.633 153.458 131.771C152.325 128.045 150.613 123.003 148.293 117.737C145.973 112.467 143.054 106.993 139.515 102.389C135.972 97.7798 131.845 94.0913 127.122 92.315L127.632 90.9682C132.701 92.8752 137.027 96.7889 140.657 101.511C144.291 106.239 147.264 111.825 149.612 117.155C151.96 122.489 153.692 127.587 154.836 131.35C155.409 133.233 155.835 134.783 156.118 135.864C156.259 136.404 156.365 136.828 156.436 137.117C156.471 137.261 156.498 137.372 156.516 137.447C156.524 137.485 156.531 137.513 156.536 137.533C156.538 137.543 156.54 137.55 156.541 137.555C156.541 137.558 156.542 137.56 156.542 137.561C156.542 137.562 156.543 137.562 156.543 137.563C156.543 137.563 156.543 137.563 155.841 137.725ZM80.8086 97.5872C80.6248 97.7007 80.4431 97.8242 80.2636 97.9577L79.406 96.8033C79.6165 96.6468 79.8327 96.4998 80.053 96.3637L80.8086 97.5872ZM80.2636 97.9577C79.1858 98.758 78.2226 99.8865 77.5164 101.153L76.2585 100.455C77.0533 99.0289 78.1469 97.7387 79.406 96.8033L80.2636 97.9577ZM77.5164 101.153C75.921 104.014 75.7923 107.196 77.9153 108.967L76.9912 110.072C74.0604 107.627 74.5409 103.535 76.2585 100.455L77.5164 101.153ZM77.9153 108.967C78.0135 109.048 78.1127 109.124 78.2129 109.194L77.3885 110.375C77.2536 110.281 77.1213 110.18 76.9912 110.072L77.9153 108.967ZM78.2129 109.194C78.2309 109.206 78.2492 109.219 78.2675 109.231L77.4617 110.425C77.4374 110.409 77.4131 110.392 77.3885 110.375L78.2129 109.194ZM78.2675 109.231C79.3296 109.945 80.5813 110.061 81.887 109.748C83.2027 109.434 84.5318 108.691 85.6518 107.761L86.5711 108.867C85.326 109.901 83.8018 110.769 82.2202 111.148C80.6291 111.528 78.9391 111.419 77.4617 110.425L78.2675 109.231ZM85.6518 107.761C86.5557 107.01 87.2936 106.163 87.7631 105.37L89.002 106.102C88.4339 107.06 87.579 108.03 86.5711 108.867L85.6518 107.761ZM87.7631 105.37C88.0143 104.947 88.1787 104.557 88.2584 104.219L89.6597 104.55C89.5376 105.064 89.3055 105.59 89.002 106.102L87.7631 105.37ZM56.9931 51.4155C47.7251 48.143 36.8845 51.1198 30.2442 53.7215L29.7204 52.3818C36.4118 49.7604 47.6836 46.6018 57.4749 50.0587L56.9931 51.4155ZM30.2442 53.7215C28.4205 54.4355 26.9301 55.1155 25.8976 55.6152C25.3812 55.8649 24.9796 56.0701 24.7081 56.2119C24.5724 56.2828 24.4697 56.3377 24.401 56.3745C24.3669 56.3933 24.341 56.4071 24.3245 56.4161C24.3161 56.4208 24.3097 56.4241 24.306 56.4264C24.304 56.4277 24.3028 56.4284 24.302 56.4289C24.3013 56.4288 24.3013 56.4288 24.3009 56.429C24.3009 56.429 24.3009 56.429 23.9513 55.801C23.6022 55.1726 23.6022 55.1726 23.6022 55.1726C23.6026 55.1724 23.6026 55.1724 23.603 55.1721C23.6034 55.1719 23.6038 55.1716 23.6046 55.1711C23.6059 55.1704 23.6079 55.1691 23.611 55.1677C23.6159 55.1647 23.6235 55.1606 23.6332 55.1552C23.6527 55.1448 23.6808 55.1291 23.7177 55.1092C23.7919 55.0695 23.901 55.0112 24.0427 54.9372C24.3261 54.7891 24.7407 54.5776 25.2711 54.3204C26.332 53.8071 27.857 53.112 29.7204 52.3818L30.2442 53.7215ZM155.841 137.725C155.134 137.862 155.134 137.862 155.134 137.862C155.134 137.862 155.134 137.861 155.134 137.861C155.133 137.86 155.133 137.858 155.133 137.856C155.132 137.852 155.131 137.846 155.129 137.838C155.126 137.821 155.121 137.795 155.114 137.761C155.1 137.693 155.08 137.591 155.052 137.456C154.997 137.188 154.913 136.791 154.799 136.282C154.572 135.264 154.227 133.795 153.756 131.997C152.813 128.402 151.367 123.499 149.353 118.268C147.339 113.034 144.763 107.487 141.565 102.595C138.364 97.6977 134.567 93.4966 130.125 90.9041L130.853 89.6612C135.559 92.408 139.503 96.8068 142.771 101.806C146.042 106.811 148.661 112.457 150.697 117.749C152.735 123.043 154.197 127.999 155.149 131.631C155.625 133.447 155.974 134.933 156.205 135.967C156.32 136.484 156.405 136.888 156.462 137.163C156.491 137.301 156.512 137.406 156.526 137.478C156.533 137.514 156.539 137.541 156.542 137.56C156.544 137.569 156.546 137.576 156.547 137.581C156.547 137.583 156.547 137.585 156.548 137.586C156.548 137.587 156.548 137.588 156.548 137.588C156.548 137.588 156.548 137.589 155.841 137.725ZM88.2584 104.219C89.0469 100.899 89.4362 95.4618 89.2129 92.097L90.6498 91.9994C90.8816 95.4935 90.4844 101.075 89.6597 104.55L88.2584 104.219ZM89.2129 92.097C88.0452 74.5007 73.9468 57.4015 56.9931 51.4155L57.4749 50.0587C74.9112 56.2153 89.44 73.7699 90.6498 91.9994L89.2129 92.097ZM127.122 92.315C116.989 88.5027 107.519 87.8656 98.2568 90.0711L97.9252 88.6713C107.491 86.3942 117.253 87.064 127.632 90.9682L127.122 92.315ZM98.2568 90.0711C95.5636 90.7119 92.8844 91.5944 90.2079 92.7118L89.6546 91.3841C92.3981 90.2389 95.1517 89.3319 97.9252 88.6713L98.2568 90.0711ZM90.2079 92.7118C87.0772 94.0184 83.95 95.6469 80.8086 97.5872L80.053 96.3637C83.2513 94.3882 86.4462 92.7236 89.6546 91.3841L90.2079 92.7118ZM130.125 90.9041C125.469 88.1864 119.716 87.3665 113.987 87.5417C108.266 87.7165 102.635 88.8805 98.2789 90.0653L97.903 88.6771C102.321 87.4756 108.071 86.283 113.946 86.1036C119.813 85.9245 125.872 86.7535 130.853 89.6612L130.125 90.9041ZM98.2789 90.0653C95.8544 90.7245 93.8314 91.3881 92.4161 91.8865C91.7087 92.1358 91.1532 92.3431 90.7761 92.4882C90.5875 92.5607 90.4432 92.6171 90.3471 92.6557C90.2989 92.6747 90.2626 92.6892 90.2387 92.6989C90.2269 92.704 90.2182 92.7077 90.2125 92.7101C90.2094 92.7108 90.2075 92.712 90.2061 92.7123C90.2056 92.7127 90.2051 92.7129 90.2049 92.7131C90.2049 92.7131 90.2048 92.7131 89.9314 92.0482C89.6577 91.3828 89.6578 91.3827 89.6579 91.3827C89.6579 91.3827 89.6582 91.383 89.6583 91.383C89.6585 91.3829 89.6587 91.3828 89.6589 91.3826C89.6594 91.3823 89.6601 91.3819 89.6612 91.3817C89.6629 91.3807 89.6656 91.3796 89.6693 91.3784C89.6761 91.3754 89.6863 91.3713 89.6996 91.366C89.726 91.3553 89.7649 91.3397 89.8158 91.3195C89.9173 91.2788 90.0671 91.22 90.2614 91.1451C90.6502 90.9957 91.2182 90.7834 91.9395 90.5295C93.3818 90.0217 95.4389 89.3472 97.903 88.6771L98.2789 90.0653ZM80.1001 96.3368L81.5312 95.5949L82.1927 96.8714L80.7619 97.6138L80.1001 96.3368ZM81.5312 95.5949L89.6005 91.4097L90.262 92.6862L82.1927 96.8714L81.5312 95.5949ZM89.9314 92.0482C89.2306 92.2145 89.2305 92.2146 89.2305 92.2146C89.2303 92.2141 89.2304 92.2141 89.2305 92.214C89.2301 92.2131 89.2299 92.2121 89.2298 92.2111C89.229 92.2082 89.2279 92.2038 89.2266 92.1979C89.2235 92.1856 89.2192 92.1675 89.2132 92.143C89.2011 92.0936 89.1828 92.0198 89.158 91.9224C89.1085 91.7277 89.0331 91.439 88.9308 91.0672C88.7265 90.3241 88.4149 89.2494 87.988 87.9311C87.1338 85.2934 85.819 81.6846 83.9781 77.8017C80.2829 70.0075 74.5252 61.2325 66.2269 56.8805L66.8979 55.6063C75.6185 60.1798 81.5453 69.3072 85.2798 77.1841C87.1536 81.1363 88.49 84.8051 89.3581 87.4859C89.7926 88.8272 90.1101 89.9224 90.3195 90.6839C90.4243 91.0648 90.5019 91.3622 90.5535 91.5653C90.5794 91.667 90.5989 91.7452 90.612 91.7985C90.6185 91.8249 90.6232 91.8451 90.6267 91.8592C90.6284 91.8661 90.6297 91.8715 90.6307 91.8754C90.6309 91.877 90.6312 91.8784 90.6317 91.8798C90.6318 91.8803 90.6319 91.8808 90.6319 91.8809C90.632 91.8813 90.6319 91.8814 89.9314 92.0482ZM66.2269 56.8805C50.7973 48.7886 37.4954 51.1712 30.2202 53.7301L29.744 52.3734C37.278 49.7234 51.0163 47.2769 66.8979 55.6063L66.2269 56.8805ZM30.2202 53.7301C28.335 54.3931 26.8561 55.0677 25.8519 55.5741C25.35 55.8272 24.9672 56.0383 24.7117 56.1849C24.5842 56.258 24.4884 56.3149 24.426 56.3529C24.3947 56.3717 24.3714 56.386 24.357 56.3955C24.3496 56.4001 24.3443 56.4033 24.3414 56.4051C24.3398 56.4061 24.3386 56.4069 24.3382 56.4071C24.3382 56.4071 24.3382 56.4071 23.9513 55.801C23.5649 55.1945 23.5649 55.1945 23.5649 55.1945L23.5653 55.1943C23.5653 55.1943 23.5657 55.194 23.5661 55.1938C23.5665 55.1935 23.5674 55.193 23.5682 55.1925C23.5698 55.1915 23.5719 55.1902 23.5747 55.1885C23.58 55.1852 23.5878 55.1804 23.5972 55.1746C23.6166 55.1621 23.6443 55.1449 23.6805 55.1231C23.753 55.0795 23.8586 55.0165 23.997 54.9372C24.2728 54.7787 24.6786 54.5556 25.2048 54.2898C26.2568 53.7594 27.7934 53.0594 29.744 52.3734L30.2202 53.7301ZM89.9314 92.0482C90.6512 92.0453 90.6514 92.0457 90.6513 92.0458C90.6513 92.0458 90.6512 92.0458 90.6514 92.0463C90.6512 92.0464 90.6512 92.047 90.6514 92.048C90.6512 92.0492 90.6513 92.0514 90.6513 92.0542C90.6514 92.0598 90.6513 92.0677 90.6514 92.0784C90.6513 92.0993 90.6512 92.1303 90.6511 92.171C90.6509 92.2522 90.6503 92.3709 90.649 92.5227C90.6465 92.8268 90.6411 93.2634 90.6295 93.7957C90.6068 94.8604 90.56 96.3119 90.4636 97.8555C90.3673 99.3968 90.2209 101.042 89.9977 102.49C89.7788 103.91 89.4728 105.238 89.0148 106.079L87.7503 105.393C88.0767 104.794 88.356 103.69 88.5744 102.274C88.7884 100.886 88.9313 99.2887 89.0261 97.7681C89.1209 96.2498 89.1674 94.8193 89.19 93.7676C89.2011 93.2418 89.2064 92.8115 89.2089 92.513C89.2103 92.364 89.2108 92.2476 89.2111 92.1691C89.2111 92.1296 89.2112 92.0997 89.2113 92.08C89.2112 92.0699 89.2113 92.0625 89.2112 92.0575C89.2113 92.0552 89.2114 92.0534 89.2111 92.0519C89.2112 92.0513 89.2113 92.0512 89.2112 92.0507C89.2112 92.0507 89.2112 92.0507 89.2112 92.0507C89.2112 92.0507 89.2113 92.0506 89.9314 92.0482ZM88.7606 106.348C88.8431 106.297 88.9014 106.238 88.9418 106.188C88.9616 106.163 88.9779 106.14 88.9907 106.12C89.0036 106.1 89.014 106.081 89.0221 106.066C89.03 106.05 89.0363 106.037 89.0414 106.026C89.0458 106.014 89.0497 106.005 89.0527 105.998C89.0551 105.991 89.0574 105.986 89.0586 105.982C89.0594 105.981 89.0597 105.979 89.0602 105.978C89.0604 105.978 89.0605 105.977 89.0605 105.977C89.0608 105.978 89.06 105.978 89.0602 105.978C89.0597 105.979 89.0594 105.981 89.0586 105.982C89.0574 105.986 89.0551 105.991 89.0527 105.998C89.0497 106.005 89.0458 106.014 89.0414 106.026C89.0363 106.037 89.03 106.05 89.0221 106.066C89.0142 106.081 89.0036 106.1 88.9907 106.12C88.9779 106.14 88.962 106.163 88.9418 106.188C88.9018 106.237 88.8427 106.297 88.7606 106.348L88.0049 105.124C87.9223 105.175 87.8633 105.234 87.8234 105.284C87.8036 105.308 87.7873 105.331 87.7744 105.352C87.7616 105.372 87.7512 105.391 87.7431 105.406C87.7352 105.422 87.7289 105.435 87.724 105.446C87.719 105.457 87.7151 105.467 87.7127 105.474C87.7096 105.481 87.708 105.486 87.7065 105.489C87.7058 105.491 87.7055 105.492 87.7052 105.494C87.705 105.494 87.7046 105.495 87.7046 105.495C87.705 105.494 87.7048 105.494 87.7052 105.494C87.7055 105.492 87.7058 105.491 87.7065 105.489C87.708 105.486 87.71 105.48 87.7127 105.474C87.7151 105.467 87.7194 105.457 87.724 105.446C87.7289 105.435 87.7352 105.422 87.7431 105.406C87.7512 105.391 87.7616 105.372 87.7744 105.352C87.7873 105.331 87.8036 105.308 87.8234 105.284C87.8638 105.234 87.9223 105.175 88.0049 105.124L88.7606 106.348ZM89.0148 106.079C88.4537 107.11 87.5776 108.075 86.5564 108.879L85.6664 107.75C86.5724 107.036 87.3029 106.214 87.7503 105.393L89.0148 106.079ZM86.5564 108.879C85.2473 109.911 83.6494 110.718 82.0574 111.067C80.4704 111.415 78.8057 111.322 77.4642 110.426L78.266 109.23C79.1717 109.835 80.3944 109.959 81.7507 109.662C83.1018 109.365 84.5041 108.665 85.6664 107.75L86.5564 108.879ZM77.4739 110.433C77.4693 110.43 77.4663 110.428 77.4642 110.426C77.4633 110.426 77.4624 110.425 77.4617 110.425C77.4615 110.425 77.4615 110.425 77.4615 110.425C77.4611 110.425 77.4608 110.425 77.4608 110.425C77.4606 110.424 77.4624 110.425 77.4642 110.426C77.4661 110.427 77.4693 110.43 77.4732 110.433L78.2561 109.223C78.2602 109.226 78.2636 109.228 78.2657 109.23C78.2666 109.23 78.2675 109.231 78.2678 109.231C78.2685 109.232 78.2685 109.232 78.2685 109.232C78.2687 109.232 78.2687 109.232 78.2687 109.232C78.2694 109.232 78.2675 109.231 78.2657 109.23C78.2639 109.229 78.2607 109.226 78.2563 109.224L77.4739 110.433ZM77.4636 110.426C77.4377 110.409 77.4122 110.391 77.3871 110.374L78.2147 109.195C78.2315 109.206 78.2485 109.219 78.2657 109.23L77.4636 110.426ZM77.3871 110.374C76.0032 109.405 75.3298 107.731 75.1831 105.969C75.036 104.196 75.4078 102.224 76.238 100.494L77.5362 101.114C76.8107 102.626 76.4933 104.342 76.6186 105.848C76.7445 107.364 77.3057 108.559 78.2147 109.195L77.3871 110.374ZM76.238 100.494C76.9548 99.0002 78.0308 97.6494 79.4568 96.7686L80.2125 97.992C79.0704 98.6974 78.1612 99.8117 77.5362 101.114L76.238 100.494ZM79.4568 96.7686C79.9357 96.4728 80.6705 96.0612 81.5193 95.6011L82.2042 96.8654C81.3575 97.3242 80.6538 97.7194 80.2125 97.992L79.4568 96.7686ZM81.5193 95.6011C83.1011 94.7436 85.1245 93.6943 86.7493 92.8609C87.5623 92.4438 88.2769 92.0802 88.7881 91.8208C89.0437 91.691 89.2485 91.5871 89.3895 91.5158C89.4602 91.4805 89.5145 91.4526 89.5516 91.4342C89.5702 91.425 89.5841 91.4176 89.5936 91.4128C89.5983 91.4105 89.6019 91.4088 89.6042 91.4074C89.6056 91.4071 89.6065 91.4065 89.6071 91.4062C89.6074 91.406 89.6076 91.4059 89.6078 91.4058C89.6078 91.4057 89.6077 91.4058 89.6078 91.4058C89.6078 91.4057 89.608 91.4056 89.9314 92.0482C90.2545 92.6903 90.2545 92.6903 90.2545 92.6903C90.2545 92.6903 90.2544 92.6904 90.2545 92.6903C90.2543 92.6904 90.254 92.6906 90.2537 92.6908C90.2532 92.6911 90.2521 92.6912 90.251 92.6919C90.2487 92.6933 90.2451 92.695 90.2405 92.6973C90.2311 92.7019 90.2171 92.7089 90.199 92.7184C90.1621 92.7367 90.1078 92.764 90.0377 92.7995C89.8972 92.8704 89.6932 92.9739 89.4382 93.1032C88.9284 93.3618 88.216 93.7246 87.4051 94.1404C85.7824 94.9731 83.7709 96.0161 82.2042 96.8654L81.5193 95.6011Z" fill="#317039"/>
<path d="M31.7333 63.5353L11.3523 63.0833C10.9534 63.0745 10.7395 62.6111 10.9919 62.3014L24.3445 45.9156C24.6643 45.5231 25.295 45.8277 25.1851 46.3215L23.0768 55.7953C23.0354 55.9815 23.1082 56.1743 23.2621 56.2865L32.0281 62.6681C32.4077 62.9446 32.2037 63.5456 31.7333 63.5353Z" fill="#317039"/>
<path d="M24.1006 55.7513C24.5324 54.0395 24.9936 52.3579 25.3745 50.6578C25.7479 48.9921 26.0526 47.3103 26.3597 45.6305C26.4303 45.1508 26.4651 44.6661 26.4639 44.1807C26.4696 43.9833 26.4376 43.7862 26.3701 43.6002C26.2089 43.1629 25.7536 43.0791 25.4245 43.4091C25.3865 43.4472 25.3525 43.489 25.3176 43.5303C22.4829 46.8582 19.6309 50.1719 16.8193 53.5188C14.7135 56.0246 12.6542 58.5698 10.5858 61.1067C10.1658 61.6213 9.77842 62.1648 9.4104 62.7178C8.98916 63.3509 9.24715 63.9093 10.0043 63.9809C10.846 64.0604 11.6934 64.0852 12.5381 64.1303C16.2422 64.3276 19.9451 64.5566 23.6506 64.7068C25.4466 64.7795 27.2482 64.6949 29.0474 64.697C30.1091 64.6986 31.1716 64.7591 32.2324 64.7365C32.7873 64.7099 33.3387 64.6312 33.8787 64.5011C34.2622 64.4192 34.3458 64.2008 34.2717 63.8093C34.1117 62.9617 33.6116 62.3403 32.9344 61.8572C30.9739 60.4589 29.1139 58.9226 27.0481 57.6701C26.0506 57.0641 25.0898 56.3978 24.1006 55.7513ZM11.0726 62.6224C15.6177 56.7344 20.39 51.1449 25.097 45.4954C25.1077 45.6764 25.0925 45.8582 25.0518 46.0354C24.5431 48.0962 24.0494 50.1612 23.5118 52.2145C23.207 53.3797 22.8239 54.5251 22.4862 55.6819C22.3483 56.1542 22.4993 56.5522 22.9343 56.6999C23.5662 56.9141 24.0702 57.3161 24.5875 57.7002C26.9551 59.4571 29.3192 61.219 31.6794 62.9856C31.7232 63.0228 31.7631 63.0646 31.7982 63.1094C24.922 63.3818 18.0416 63.1373 11.073 62.6221L11.0726 62.6224Z" fill="#317039"/>
</g>
<defs>
<clipPath id="clip0_119_391">
<rect width="157.703" height="94.133" fill="white" transform="matrix(-0.525504 -0.850791 -0.850791 0.525504 162.961 134.173)"/>
</clipPath>
</defs>
</svg>
