<svg width="111" height="111" viewBox="0 0 111 111" fill="none" xmlns="http://www.w3.org/2000/svg">
<path d="M49.5469 86.7047C49.3828 88.606 53.7423 88.8623 68.1213 87.8561C83.3415 86.7809 86.6599 85.9879 86.0698 83.7761C85.2211 80.7444 49.8912 83.6367 49.5469 86.7047Z" fill="#317039"/>
<path d="M39.1879 20.1357C33.4935 20.0461 32.7472 21.012 28.8514 33.4701C24.8141 46.3333 24.5341 48.8274 26.8798 49.7876C31.1402 51.5112 33.3001 48.4494 39.0866 32.7893C43.349 21.2331 43.391 20.2018 39.1879 20.1357Z" fill="#317039"/>
<path d="M70.4503 40.0855C66.3603 39.9697 64.8579 40.7634 59.9617 45.5594C45.4917 59.8422 34.0275 68.8923 41.9932 68.9575C45.2443 69.0063 48.207 66.6295 65.6858 50.4877C75.3061 41.5186 75.9212 40.2765 70.4503 40.0855Z" fill="#317039"/>
</svg>
