<svg width="163" height="184" viewBox="0 0 163 184" fill="none" xmlns="http://www.w3.org/2000/svg">
<g clip-path="url(#clip0_119_363)">
<path d="M35.5844 91.6419C16.0014 99.0086 7.12031 137.726 7.12031 137.726C7.12031 137.726 14.1779 100.961 32.472 90.2829C42.1094 84.6575 56.0955 86.9856 64.8702 89.3715C67.6037 90.022 70.3198 90.9171 73.0298 92.0484C74.2186 74.1356 88.5322 56.8086 105.727 50.7374C115.257 47.3727 126.313 50.4406 132.979 53.0519C136.815 54.4011 139.01 55.8012 139.01 55.8012C139.01 55.8012 136.666 54.4965 132.979 53.0519C125.575 50.4477 112.054 48.0332 96.3988 56.2436C79.38 65.1692 73.0298 92.0484 73.0298 92.0484C76.1995 93.3713 79.3605 95.0178 82.5304 96.9757C82.7323 97.1004 82.9314 97.2358 83.1265 97.3805C84.4104 98.1735 85.4033 99.4065 86.0739 100.804C87.7304 103.775 88.0348 107.412 85.508 109.52C85.3941 109.614 85.2781 109.703 85.1604 109.784C85.1392 109.799 85.1179 109.814 85.0966 109.828C82.5567 111.536 79.2144 110.278 76.8496 108.314C75.8862 107.555 75.0829 106.663 74.5785 105.736C73.0108 102.856 73.0298 92.0484 73.0298 92.0484C72.8024 95.4777 73.1956 100.987 74.0022 104.385C74.1031 104.811 74.3015 105.268 74.5785 105.736C75.0976 106.611 75.8941 107.521 76.8496 108.314C79.3217 110.262 82.8491 111.329 85.0959 109.828C85.0963 109.829 85.0966 109.828 85.0966 109.828C85.1179 109.814 85.1392 109.799 85.1604 109.784C87.4531 108.18 87.63 104.047 86.0739 100.804C85.323 99.4578 84.2946 98.2485 83.1265 97.3805C82.6665 97.0964 81.9473 96.6933 81.0996 96.2333L73.0298 92.0484C73.0298 92.0484 73.0108 102.856 74.5785 105.736C74.3015 105.268 74.1031 104.811 74.0022 104.385C73.1956 100.987 72.8024 95.4777 73.0298 92.0484C73.0298 92.0484 69.7589 90.7008 64.8702 89.3715C55.4563 87.1299 45.8406 87.7836 35.5844 91.6419Z" fill="#4F227C"/>
<path d="M7.12032 137.725L6.41316 137.589L7.82215 137.887L7.12032 137.725ZM139.01 55.801L138.66 56.429L139.396 55.1945L139.01 55.801ZM74.5785 105.736L73.9464 106.079L74.0376 106.247L74.2007 106.348L74.5785 105.736ZM85.0959 109.828L84.7049 109.224L84.7001 109.227L84.6953 109.23L85.0959 109.828ZM7.12032 137.725C7.82215 137.887 7.82212 137.887 7.82215 137.887C7.8222 137.887 7.8223 137.886 7.82242 137.886C7.82264 137.885 7.82298 137.883 7.82346 137.881C7.82447 137.877 7.82601 137.87 7.82808 137.861C7.83224 137.844 7.83858 137.817 7.84705 137.781C7.86406 137.709 7.88977 137.602 7.92425 137.461C7.99321 137.179 8.09724 136.763 8.23674 136.231C8.51578 135.165 8.93667 133.633 9.50292 131.771C10.6359 128.045 12.3485 123.003 14.6679 117.737C16.9886 112.467 19.9076 106.993 23.4467 102.389C26.9896 97.7798 31.1167 94.0913 35.8391 92.315L35.3297 90.9682C30.2607 92.8752 25.934 96.7889 22.304 101.511C18.6701 106.239 15.697 111.825 13.3496 117.155C11.0008 122.489 9.26925 127.587 8.12497 131.35C7.55268 133.233 7.12671 134.783 6.84359 135.864C6.70197 136.404 6.59609 136.828 6.52536 137.117C6.49003 137.261 6.46348 137.372 6.44568 137.447C6.4368 137.485 6.43006 137.513 6.42554 137.533C6.42326 137.543 6.42155 137.55 6.42037 137.555C6.41976 137.558 6.41933 137.56 6.419 137.561C6.41885 137.562 6.41871 137.562 6.41861 137.563C6.41851 137.563 6.41844 137.563 7.12032 137.725ZM82.1526 97.5872C82.3365 97.7007 82.5182 97.8242 82.6977 97.9577L83.5552 96.8033C83.3447 96.6468 83.1285 96.4998 82.9083 96.3637L82.1526 97.5872ZM82.6977 97.9577C83.7755 98.758 84.7386 99.8865 85.4448 101.153L86.7028 100.455C85.9079 99.0289 84.8143 97.7387 83.5552 96.8033L82.6977 97.9577ZM85.4448 101.153C87.0402 104.014 87.169 107.196 85.0459 108.967L85.9701 110.072C88.9008 107.627 88.4204 103.535 86.7028 100.455L85.4448 101.153ZM85.0459 108.967C84.9477 109.048 84.8485 109.124 84.7483 109.194L85.5727 110.375C85.7076 110.281 85.8399 110.18 85.9701 110.072L85.0459 108.967ZM84.7483 109.194C84.7304 109.206 84.712 109.219 84.6937 109.231L85.4995 110.425C85.5238 110.409 85.5481 110.392 85.5727 110.375L84.7483 109.194ZM84.6937 109.231C83.6316 109.945 82.38 110.061 81.0742 109.748C79.7585 109.434 78.4294 108.691 77.3095 107.761L76.3901 108.867C77.6353 109.901 79.1594 110.769 80.741 111.148C82.3322 111.528 84.0221 111.419 85.4995 110.425L84.6937 109.231ZM77.3095 107.761C76.4056 107.01 75.6676 106.163 75.1981 105.37L73.9592 106.102C74.5274 107.06 75.3822 108.03 76.3901 108.867L77.3095 107.761ZM75.1981 105.37C74.947 104.947 74.7826 104.557 74.7029 104.219L73.3015 104.55C73.4236 105.064 73.6557 105.59 73.9592 106.102L75.1981 105.37ZM105.968 51.4155C115.236 48.143 126.077 51.1198 132.717 53.7215L133.241 52.3818C126.549 49.7604 115.278 46.6018 105.486 50.0587L105.968 51.4155ZM132.717 53.7215C134.541 54.4355 136.031 55.1155 137.064 55.6152C137.58 55.8649 137.982 56.0701 138.253 56.2119C138.389 56.2828 138.492 56.3377 138.56 56.3745C138.594 56.3933 138.62 56.4071 138.637 56.4161C138.645 56.4208 138.652 56.4241 138.655 56.4264C138.657 56.4277 138.658 56.4284 138.659 56.4289C138.66 56.4288 138.66 56.4288 138.66 56.429C138.66 56.429 138.66 56.429 139.01 55.801C139.359 55.1726 139.359 55.1726 139.359 55.1726C139.359 55.1724 139.359 55.1724 139.358 55.1721C139.358 55.1719 139.357 55.1716 139.357 55.1711C139.355 55.1704 139.353 55.1691 139.35 55.1677C139.345 55.1647 139.338 55.1606 139.328 55.1552C139.308 55.1448 139.28 55.1291 139.244 55.1092C139.169 55.0695 139.06 55.0112 138.919 54.9372C138.635 54.7891 138.221 54.5776 137.69 54.3204C136.629 53.8071 135.104 53.112 133.241 52.3818L132.717 53.7215ZM7.12032 137.725C7.82743 137.862 7.82743 137.862 7.82746 137.862C7.82749 137.862 7.82754 137.861 7.82765 137.861C7.82783 137.86 7.82812 137.858 7.82852 137.856C7.82929 137.852 7.83051 137.846 7.83217 137.838C7.83546 137.821 7.8405 137.795 7.8473 137.761C7.86088 137.693 7.88148 137.591 7.90918 137.456C7.96462 137.188 8.04861 136.791 8.16212 136.282C8.38913 135.264 8.7342 133.795 9.20544 131.997C10.1482 128.402 11.5944 123.499 13.608 118.268C15.6224 113.034 18.1985 107.487 21.3961 102.595C24.5967 97.6977 28.3943 93.4966 32.836 90.9041L32.1081 89.6612C27.4027 92.408 23.4578 96.8068 20.1899 101.806C16.9189 106.811 14.3005 112.457 12.2638 117.749C10.2262 123.043 8.76458 127.999 7.81236 131.631C7.33609 133.447 6.98687 134.933 6.75645 135.967C6.64123 136.484 6.55574 136.888 6.49886 137.163C6.4704 137.301 6.44916 137.406 6.4349 137.478C6.42777 137.514 6.42244 137.541 6.4188 137.56C6.41698 137.569 6.41561 137.576 6.41469 137.581C6.41421 137.583 6.41385 137.585 6.4136 137.586C6.41347 137.587 6.41335 137.588 6.41331 137.588C6.41322 137.588 6.41316 137.589 7.12032 137.725ZM74.7029 104.219C73.9143 100.899 73.5251 95.4618 73.7483 92.097L72.3114 91.9994C72.0796 95.4935 72.4768 101.075 73.3015 104.55L74.7029 104.219ZM73.7483 92.097C74.916 74.5007 89.0144 57.4015 105.968 51.4155L105.486 50.0587C88.05 56.2153 73.5212 73.7699 72.3114 91.9994L73.7483 92.097ZM35.8391 92.315C45.9727 88.5027 55.4419 87.8656 64.7044 90.0711L65.036 88.6713C55.4705 86.3942 45.7085 87.064 35.3297 90.9682L35.8391 92.315ZM64.7044 90.0711C67.3976 90.7119 70.0768 91.5944 72.7533 92.7118L73.3066 91.3841C70.5631 90.2389 67.8095 89.3319 65.036 88.6713L64.7044 90.0711ZM72.7533 92.7118C75.884 94.0184 79.0112 95.6469 82.1526 97.5872L82.9083 96.3637C79.7099 94.3882 76.5151 92.7236 73.3066 91.3841L72.7533 92.7118ZM32.836 90.9041C37.492 88.1864 43.2448 87.3665 48.9739 87.5417C54.6952 87.7165 60.326 88.8805 64.6823 90.0653L65.0582 88.6771C60.64 87.4756 54.8901 86.283 49.0154 86.1036C43.1485 85.9245 37.0896 86.7535 32.1081 89.6612L32.836 90.9041ZM64.6823 90.0653C67.1069 90.7245 69.1299 91.3881 70.5452 91.8865C71.2526 92.1358 71.808 92.3431 72.1852 92.4882C72.3737 92.5607 72.518 92.6171 72.6141 92.6557C72.6624 92.6747 72.6986 92.6892 72.7225 92.6989C72.7343 92.704 72.7431 92.7077 72.7488 92.7101C72.7518 92.7108 72.7537 92.712 72.7551 92.7123C72.7557 92.7127 72.7561 92.7129 72.7563 92.7131C72.7563 92.7131 72.7565 92.7131 73.0298 92.0482C73.3035 91.3828 73.3034 91.3827 73.3034 91.3827C73.3033 91.3827 73.303 91.383 73.3029 91.383C73.3027 91.3829 73.3025 91.3828 73.3023 91.3826C73.3018 91.3823 73.3011 91.3819 73.3 91.3817C73.2983 91.3807 73.2956 91.3796 73.2919 91.3784C73.2851 91.3754 73.2749 91.3713 73.2617 91.366C73.2352 91.3553 73.1963 91.3397 73.1454 91.3195C73.0439 91.2788 72.8941 91.22 72.6998 91.1451C72.3111 90.9957 71.743 90.7834 71.0217 90.5295C69.5794 90.0217 67.5223 89.3472 65.0582 88.6771L64.6823 90.0653ZM82.8611 96.3368L81.43 95.5949L80.7685 96.8714L82.1994 97.6138L82.8611 96.3368ZM81.43 95.5949L73.3608 91.4097L72.6992 92.6862L80.7685 96.8714L81.43 95.5949ZM73.0298 92.0482C73.7306 92.2145 73.7307 92.2146 73.7307 92.2146C73.7309 92.2141 73.7309 92.2141 73.7308 92.214C73.7311 92.2131 73.7313 92.2121 73.7315 92.2111C73.7322 92.2082 73.7333 92.2038 73.7347 92.1979C73.7377 92.1856 73.742 92.1675 73.748 92.143C73.7602 92.0936 73.7784 92.0198 73.8032 91.9224C73.8528 91.7277 73.9281 91.439 74.0304 91.0672C74.2347 90.3241 74.5463 89.2494 74.9733 87.9311C75.8274 85.2934 77.1423 81.6846 78.9832 77.8017C82.6784 70.0075 88.436 61.2325 96.7343 56.8805L96.0633 55.6063C87.3427 60.1798 81.4159 69.3072 77.6814 77.1841C75.8076 81.1363 74.4712 84.8051 73.6031 87.4859C73.1686 88.8272 72.8511 89.9224 72.6417 90.6839C72.537 91.0648 72.4593 91.3622 72.4077 91.5653C72.3818 91.667 72.3623 91.7452 72.3492 91.7985C72.3428 91.8249 72.338 91.8451 72.3345 91.8592C72.3329 91.8661 72.3316 91.8715 72.3306 91.8754C72.3303 91.877 72.33 91.8784 72.3295 91.8798C72.3294 91.8803 72.3293 91.8808 72.3294 91.8809C72.3292 91.8813 72.3293 91.8814 73.0298 92.0482ZM96.7343 56.8805C112.164 48.7886 125.466 51.1712 132.741 53.7301L133.217 52.3734C125.683 49.7234 111.945 47.2769 96.0633 55.6063L96.7343 56.8805ZM132.741 53.7301C134.626 54.3931 136.105 55.0677 137.109 55.5741C137.611 55.8272 137.994 56.0383 138.249 56.1849C138.377 56.258 138.473 56.3149 138.535 56.3529C138.567 56.3717 138.59 56.386 138.604 56.3955C138.612 56.4001 138.617 56.4033 138.62 56.4051C138.621 56.4061 138.623 56.4069 138.623 56.4071C138.623 56.4071 138.623 56.4071 139.01 55.801C139.396 55.1945 139.396 55.1945 139.396 55.1945L139.396 55.1943C139.396 55.1943 139.396 55.194 139.395 55.1938C139.395 55.1935 139.394 55.193 139.393 55.1925C139.391 55.1915 139.389 55.1902 139.387 55.1885C139.381 55.1852 139.373 55.1804 139.364 55.1746C139.345 55.1621 139.317 55.1449 139.281 55.1231C139.208 55.0795 139.103 55.0165 138.964 54.9372C138.688 54.7787 138.283 54.5556 137.756 54.2898C136.704 53.7594 135.168 53.0594 133.217 52.3734L132.741 53.7301ZM73.0298 92.0482C72.3101 92.0453 72.3099 92.0457 72.3099 92.0458C72.3099 92.0458 72.31 92.0458 72.3099 92.0463C72.31 92.0464 72.3101 92.047 72.3099 92.048C72.31 92.0492 72.3099 92.0514 72.3099 92.0542C72.3098 92.0598 72.3099 92.0677 72.3098 92.0784C72.31 92.0993 72.31 92.1303 72.3101 92.171C72.3103 92.2522 72.3109 92.3709 72.3123 92.5227C72.3147 92.8268 72.3201 93.2634 72.3317 93.7957C72.3544 94.8604 72.4012 96.3119 72.4976 97.8555C72.594 99.3968 72.7404 101.042 72.9635 102.49C73.1825 103.91 73.4885 105.238 73.9464 106.079L75.2109 105.393C74.8845 104.794 74.6052 103.69 74.3868 102.274C74.1728 100.886 74.03 99.2887 73.9351 97.7681C73.8403 96.2498 73.7939 94.8193 73.7713 93.7676C73.7601 93.2418 73.7548 92.8115 73.7523 92.513C73.751 92.364 73.7505 92.2476 73.7502 92.1691C73.7501 92.1296 73.7501 92.0997 73.75 92.08C73.75 92.0699 73.7499 92.0625 73.75 92.0575C73.7499 92.0552 73.7499 92.0534 73.7501 92.0519C73.7501 92.0513 73.7499 92.0512 73.75 92.0507C73.75 92.0507 73.7501 92.0507 73.75 92.0507C73.75 92.0507 73.7499 92.0506 73.0298 92.0482ZM74.2007 106.348C74.1181 106.297 74.0598 106.238 74.0194 106.188C73.9996 106.163 73.9834 106.14 73.9705 106.12C73.9577 106.1 73.9473 106.081 73.9391 106.066C73.9313 106.05 73.9249 106.037 73.9199 106.026C73.9155 106.014 73.9115 106.005 73.9085 105.998C73.9061 105.991 73.9038 105.986 73.9026 105.982C73.9019 105.981 73.9016 105.979 73.901 105.978C73.9008 105.978 73.9007 105.977 73.9007 105.977C73.9004 105.978 73.9013 105.978 73.901 105.978C73.9016 105.979 73.9019 105.981 73.9026 105.982C73.9038 105.986 73.9061 105.991 73.9085 105.998C73.9115 106.005 73.9155 106.014 73.9199 106.026C73.9249 106.037 73.9313 106.05 73.9391 106.066C73.947 106.081 73.9577 106.1 73.9705 106.12C73.9834 106.14 73.9992 106.163 74.0194 106.188C74.0594 106.237 74.1185 106.297 74.2007 106.348L74.9564 105.124C75.0389 105.175 75.0979 105.234 75.1379 105.284C75.1577 105.308 75.1739 105.331 75.1868 105.352C75.1996 105.372 75.21 105.391 75.2182 105.406C75.226 105.422 75.2324 105.435 75.2372 105.446C75.2422 105.457 75.2462 105.467 75.2485 105.474C75.2516 105.481 75.2533 105.486 75.2547 105.489C75.2554 105.491 75.2557 105.492 75.256 105.494C75.2562 105.494 75.2566 105.495 75.2566 105.495C75.2562 105.494 75.2565 105.494 75.256 105.494C75.2557 105.492 75.2554 105.491 75.2547 105.489C75.2533 105.486 75.2512 105.48 75.2485 105.474C75.2462 105.467 75.2418 105.457 75.2372 105.446C75.2324 105.435 75.226 105.422 75.2182 105.406C75.21 105.391 75.1996 105.372 75.1868 105.352C75.1739 105.331 75.1577 105.308 75.1379 105.284C75.0975 105.234 75.0389 105.175 74.9564 105.124L74.2007 106.348ZM73.9464 106.079C74.5076 107.11 75.3836 108.075 76.4048 108.879L77.2948 107.75C76.3889 107.036 75.6583 106.214 75.2109 105.393L73.9464 106.079ZM76.4048 108.879C77.7139 109.911 79.3119 110.718 80.9039 111.067C82.4908 111.415 84.1555 111.322 85.497 110.426L84.6953 109.23C83.7895 109.835 82.5668 109.959 81.2106 109.662C79.8594 109.365 78.4571 108.665 77.2948 107.75L76.4048 108.879ZM85.4874 110.433C85.4919 110.43 85.4949 110.428 85.497 110.426C85.4979 110.426 85.4988 110.425 85.4995 110.425C85.4997 110.425 85.4997 110.425 85.4997 110.425C85.5001 110.425 85.5004 110.425 85.5004 110.425C85.5006 110.424 85.4988 110.425 85.497 110.426C85.4952 110.427 85.4919 110.43 85.488 110.433L84.7051 109.223C84.701 109.226 84.6976 109.228 84.6955 109.23C84.6946 109.23 84.6937 109.231 84.6934 109.231C84.6928 109.232 84.6928 109.232 84.6928 109.232C84.6925 109.232 84.6925 109.232 84.6925 109.232C84.6919 109.232 84.6937 109.231 84.6955 109.23C84.6973 109.229 84.7006 109.226 84.7049 109.224L85.4874 110.433ZM85.4977 110.426C85.5236 110.409 85.549 110.391 85.5741 110.374L84.7465 109.195C84.7297 109.206 84.7127 109.219 84.6955 109.23L85.4977 110.426ZM85.5741 110.374C86.958 109.405 87.6315 107.731 87.7781 105.969C87.9252 104.196 87.5534 102.224 86.7232 100.494L85.4251 101.114C86.1505 102.626 86.4679 104.342 86.3426 105.848C86.2168 107.364 85.6555 108.559 84.7465 109.195L85.5741 110.374ZM86.7232 100.494C86.0064 99.0002 84.9305 97.6494 83.5044 96.7686L82.7487 97.992C83.8908 98.6974 84.8 99.8117 85.4251 101.114L86.7232 100.494ZM83.5044 96.7686C83.0255 96.4728 82.2907 96.0612 81.4419 95.6011L80.757 96.8654C81.6037 97.3242 82.3074 97.7194 82.7487 97.992L83.5044 96.7686ZM81.4419 95.6011C79.8602 94.7436 77.8368 93.6943 76.212 92.8609C75.3989 92.4438 74.6844 92.0802 74.1731 91.8208C73.9175 91.691 73.7128 91.5871 73.5718 91.5158C73.501 91.4805 73.4467 91.4526 73.4096 91.4342C73.3911 91.425 73.3772 91.4176 73.3677 91.4128C73.3629 91.4105 73.3593 91.4088 73.357 91.4074C73.3556 91.4071 73.3547 91.4065 73.3542 91.4062C73.3538 91.406 73.3536 91.4059 73.3535 91.4058C73.3534 91.4057 73.3535 91.4058 73.3535 91.4058C73.3534 91.4057 73.3533 91.4056 73.0298 92.0482C72.7067 92.6903 72.7067 92.6903 72.7068 92.6903C72.7067 92.6903 72.7068 92.6904 72.7068 92.6903C72.7069 92.6904 72.7072 92.6906 72.7075 92.6908C72.7081 92.6911 72.7091 92.6912 72.7103 92.6919C72.7125 92.6933 72.7161 92.695 72.7207 92.6973C72.7301 92.7019 72.7441 92.7089 72.7623 92.7184C72.7991 92.7367 72.8534 92.764 72.9236 92.7995C73.064 92.8704 73.268 92.9739 73.523 93.1032C74.0329 93.3618 74.7453 93.7246 75.5561 94.1404C77.1788 94.9731 79.1903 96.0161 80.757 96.8654L81.4419 95.6011Z" fill="#4F227C"/>
<path d="M131.228 63.5353L151.609 63.0833C152.008 63.0745 152.222 62.6111 151.969 62.3014L138.617 45.9156C138.297 45.5231 137.666 45.8277 137.776 46.3215L139.884 55.7953C139.926 55.9815 139.853 56.1743 139.699 56.2865L130.933 62.6681C130.554 62.9446 130.758 63.5456 131.228 63.5353Z" fill="#4F227C"/>
<path d="M138.861 55.7513C138.429 54.0395 137.968 52.3579 137.587 50.6578C137.213 48.9921 136.909 47.3103 136.602 45.6305C136.531 45.1508 136.496 44.6661 136.497 44.1807C136.492 43.9833 136.524 43.7862 136.591 43.6002C136.752 43.1629 137.208 43.0791 137.537 43.4091C137.575 43.4472 137.609 43.489 137.644 43.5303C140.478 46.8582 143.33 50.1719 146.142 53.5188C148.248 56.0246 150.307 58.5698 152.375 61.1067C152.795 61.6213 153.183 62.1648 153.551 62.7178C153.972 63.3509 153.714 63.9093 152.957 63.9809C152.115 64.0604 151.268 64.0852 150.423 64.1303C146.719 64.3276 143.016 64.5566 139.311 64.7068C137.515 64.7795 135.713 64.6949 133.914 64.697C132.852 64.6986 131.79 64.7591 130.729 64.7365C130.174 64.7099 129.622 64.6312 129.082 64.5011C128.699 64.4192 128.615 64.2008 128.69 63.8093C128.85 62.9617 129.35 62.3403 130.027 61.8572C131.987 60.4589 133.847 58.9226 135.913 57.6701C136.911 57.0641 137.871 56.3978 138.861 55.7513ZM151.889 62.6224C147.344 56.7344 142.571 51.1449 137.864 45.4954C137.853 45.6764 137.869 45.8582 137.909 46.0354C138.418 48.0962 138.912 50.1612 139.449 52.2145C139.754 53.3797 140.137 54.5251 140.475 55.6819C140.613 56.1542 140.462 56.5522 140.027 56.6999C139.395 56.9141 138.891 57.3161 138.374 57.7002C136.006 59.4571 133.642 61.219 131.282 62.9856C131.238 63.0228 131.198 63.0646 131.163 63.1094C138.039 63.3818 144.92 63.1373 151.888 62.6221L151.889 62.6224Z" fill="#4F227C"/>
</g>
<defs>
<clipPath id="clip0_119_363">
<rect width="157.703" height="94.133" fill="white" transform="translate(0 134.173) rotate(-58.2978)"/>
</clipPath>
</defs>
</svg>
