<svg width="51" height="63" viewBox="0 0 51 63" fill="none" xmlns="http://www.w3.org/2000/svg">
<g clip-path="url(#clip0_119_401)">
<path fill-rule="evenodd" clip-rule="evenodd" d="M31.8356 47.6847C31.6445 40.4658 34.5843 33.2669 41.0301 28.9222C43.5262 27.2397 46.4831 26.6272 49.3952 26.1181C37.5648 25.7124 33.4577 13.3359 31.8116 3.75488C32.3832 12.3479 27.8886 21.6296 18.7034 22.4861C27.847 27.8629 30.9852 37.7294 31.8356 47.6847Z" fill="#BDE93D" stroke="#181B0E" stroke-width="4" stroke-miterlimit="1.5" stroke-linecap="round" stroke-linejoin="round"/>
<path fill-rule="evenodd" clip-rule="evenodd" d="M11.7164 61.5573C11.5857 56.6182 13.5971 51.6922 18.0074 48.7197C19.7153 47.5686 21.7384 47.1495 23.7309 46.8012C15.6364 46.5236 12.8263 38.0555 11.6999 31.5C12.0911 37.3794 9.01581 43.73 2.7314 44.3161C8.98737 47.9949 11.1346 54.7456 11.7164 61.5573Z" fill="#BDE93D" stroke="#181B0E" stroke-width="3" stroke-miterlimit="1.5" stroke-linecap="round" stroke-linejoin="round"/>
<path fill-rule="evenodd" clip-rule="evenodd" d="M8.54043 24.5638C8.43983 20.7644 9.9871 16.9755 13.3797 14.6888C14.6934 13.8033 16.2497 13.4809 17.7823 13.213C11.5558 12.9995 9.39415 6.48552 8.52778 1.44287C8.82863 5.9655 6.46305 10.8506 1.62863 11.3014C6.44115 14.1313 8.09283 19.3242 8.54043 24.5638Z" fill="#BDE93D" stroke="#181B0E" stroke-width="3" stroke-miterlimit="1.5" stroke-linecap="round" stroke-linejoin="round"/>
</g>
<defs>
<clipPath id="clip0_119_401">
<rect width="51" height="63" fill="white" transform="matrix(-1 0 0 1 51 0)"/>
</clipPath>
</defs>
</svg>
