<svg width="20" height="22" viewBox="0 0 20 22" fill="none" xmlns="http://www.w3.org/2000/svg">
<path d="M3.31734 0.344317C2.81889 0.0222353 2.22019 -0.0751113 1.65863 0.0574476L11.5272 9.926L14.7256 6.72757L3.31734 0.344317Z" fill="black"/>
<path d="M0.433661 0.859638C0.158414 1.22556 0 1.67486 0 2.15014V19.7289C0 20.2042 0.158456 20.6534 0.433661 21.0194L10.5135 10.9395L0.433661 0.859638Z" fill="black"/>
<path d="M18.8997 9.06322L16.0251 7.45486L12.5405 10.9395L16.0253 14.4243L18.9001 12.8159C19.5889 12.43 20 11.7286 20 10.9395C20 10.1504 19.5889 9.4491 18.8997 9.06322Z" fill="black"/>
<path d="M11.527 11.953L1.65906 21.8209C1.82085 21.859 1.9855 21.8795 2.15015 21.8795C2.55706 21.8795 2.96256 21.7638 3.31721 21.5346L14.7256 15.1515L11.527 11.953Z" fill="black"/>
</svg>
