<svg width="20" height="24" viewBox="0 0 20 24" fill="none" xmlns="http://www.w3.org/2000/svg">
<path d="M14.3893 0C13.141 0.0863417 11.682 0.885368 10.8317 1.92586C10.0561 2.86976 9.41808 4.27172 9.66686 5.63416C11.0308 5.6766 12.44 4.85855 13.2566 3.8005C14.0205 2.81562 14.5986 1.42244 14.3893 0Z" fill="black"/>
<path d="M19.3224 8.01088C18.1239 6.50795 16.4395 5.63575 14.8488 5.63575C12.7488 5.63575 11.8605 6.64112 10.4014 6.64112C8.89704 6.64112 7.75411 5.63868 5.93801 5.63868C4.1541 5.63868 2.25458 6.72892 1.05019 8.59332C-0.64299 11.2187 -0.353233 16.1548 2.39068 20.3592C3.37263 21.8636 4.68386 23.5553 6.39898 23.57C7.92533 23.5846 8.35557 22.5909 10.4234 22.5807C12.4912 22.569 12.8834 23.5831 14.4068 23.567C16.1234 23.5539 17.5063 21.6792 18.4883 20.1748C19.1922 19.0963 19.4541 18.5533 20 17.3358C16.0297 15.8241 15.3932 10.1782 19.3224 8.01088Z" fill="black"/>
</svg>
