<svg width="94" height="104" viewBox="0 0 94 104" fill="none" xmlns="http://www.w3.org/2000/svg">
<path d="M8.65155 70.7898C19.5716 69.1598 17.8216 77.4398 20.0616 81.8698C28.3316 98.2398 65.2316 97.4998 72.2416 80.7998C73.9616 76.6898 72.5216 69.8398 82.2316 70.6698C95.6816 71.8198 84.0016 89.1298 78.6116 93.4698C59.4816 108.85 22.6116 106.51 8.48156 88.8798C5.35156 84.9698 -1.10845 72.2598 8.65155 70.7998V70.7898Z" fill="white"/>
<path d="M83.2816 32.8998C72.3616 34.5298 74.1116 26.2498 71.8716 21.8198C63.6016 5.44979 26.7016 6.18979 19.6916 22.8898C17.9716 26.9998 19.4116 33.8498 9.70156 33.0198C-3.74844 31.8698 7.93155 14.5598 13.3216 10.2198C32.4516 -5.16021 69.3216 -2.82021 83.4516 14.8098C86.5816 18.7198 93.0416 31.4298 83.2816 32.8898V32.8998Z" fill="white"/>
<path d="M9.75157 38.8498C24.8616 36.2898 29.7016 57.1098 16.9616 62.2098C-0.508434 69.2098 -7.04843 41.6998 9.75157 38.8498Z" fill="#BDF906"/>
<path d="M78.0516 38.8498C95.2016 35.3098 98.6516 60.5398 83.3516 63.1098C66.8116 65.8898 63.8016 41.7898 78.0516 38.8498Z" fill="#BDF906"/>
</svg>
